{
	"asset": {
		"generator": "Unity 5.3.4f1",
		"extras": {
			"exporterVersion" : "2.1.1"
		},
		"version": "2.0"
	},
	"accessors": [
		{
			"bufferView": 2,
			"byteOffset": 0,
			"componentType": 5126,
			"count": 9428,
			"max": [ 21.323, 0.3441898, 1.823999 ],
			"min": [ -0.2261867, -3.576279E-09, -33.942 ],
			"type": "VEC3"
		},
		{
			"bufferView": 2,
			"byteOffset": 113136,
			"componentType": 5126,
			"count": 9428,
			"max": [ 1, 1, 1 ],
			"min": [ -1, -1, -1 ],
			"type": "VEC3"
		},
		{
			"bufferView": 1,
			"byteOffset": 0,
			"componentType": 5126,
			"count": 9428,
			"max": [ 1, 1 ],
			"min": [ 0, 0 ],
			"type": "VEC2"
		},
		{
			"bufferView": 1,
			"byteOffset": 75424,
			"componentType": 5126,
			"count": 9428,
			"max": [ 0, 0 ],
			"min": [ 0, 0 ],
			"type": "VEC2"
		},
		{
			"bufferView": 0,
			"byteOffset": 0,
			"componentType": 5123,
			"count": 2088,
			"max": [ 1391 ],
			"min": [ 0 ],
			"type": "SCALAR"
		},
		{
			"bufferView": 0,
			"byteOffset": 4176,
			"componentType": 5123,
			"count": 6468,
			"max": [ 9337 ],
			"min": [ 1392 ],
			"type": "SCALAR"
		},
		{
			"bufferView": 0,
			"byteOffset": 17112,
			"componentType": 5123,
			"count": 588,
			"max": [ 9427 ],
			"min": [ 1548 ],
			"type": "SCALAR"
		},
		{
			"bufferView": 2,
			"byteOffset": 226272,
			"componentType": 5126,
			"count": 16104,
			"max": [ 29.1172, 54.13, -28.97777 ],
			"min": [ -21.98279, 0.01, -56.84777 ],
			"type": "VEC3"
		},
		{
			"bufferView": 2,
			"byteOffset": 419520,
			"componentType": 5126,
			"count": 16104,
			"max": [ 1, 1, 1 ],
			"min": [ -1, -1, -1 ],
			"type": "VEC3"
		},
		{
			"bufferView": 1,
			"byteOffset": 150848,
			"componentType": 5126,
			"count": 16104,
			"max": [ 6.177575, 6.177575 ],
			"min": [ -5.177575, -5.177574 ],
			"type": "VEC2"
		},
		{
			"bufferView": 1,
			"byteOffset": 279680,
			"componentType": 5126,
			"count": 16104,
			"max": [ 0.9985352, 0.9995117 ],
			"min": [ 0, 0 ],
			"type": "VEC2"
		},
		{
			"bufferView": 0,
			"byteOffset": 18288,
			"componentType": 5123,
			"count": 720,
			"max": [ 479 ],
			"min": [ 0 ],
			"type": "SCALAR"
		},
		{
			"bufferView": 0,
			"byteOffset": 19728,
			"componentType": 5123,
			"count": 672,
			"max": [ 5481 ],
			"min": [ 5168 ],
			"type": "SCALAR"
		},
		{
			"bufferView": 0,
			"byteOffset": 21072,
			"componentType": 5123,
			"count": 7200,
			"max": [ 14063 ],
			"min": [ 10170 ],
			"type": "SCALAR"
		},
		{
			"bufferView": 0,
			"byteOffset": 35472,
			"componentType": 5123,
			"count": 504,
			"max": [ 14375 ],
			"min": [ 14064 ],
			"type": "SCALAR"
		},
		{
			"bufferView": 0,
			"byteOffset": 36480,
			"componentType": 5123,
			"count": 2592,
			"max": [ 16103 ],
			"min": [ 14376 ],
			"type": "SCALAR"
		}
	],
	"buffers": [
		{
			"byteLength": 1062944,
			"uri": "Unity2GLTF.bin"
		}
	],
	"bufferViews": [
		{
			"buffer": 0,
			"byteLength": 41664,
			"byteOffset": 1021280,
			"target": 34963
		},
		{
			"buffer": 0,
			"byteLength": 408512,
			"byteOffset": 0,
			"byteStride": 8,
			"target": 34962
		},
		{
			"buffer": 0,
			"byteLength": 612768,
			"byteOffset": 408512,
			"byteStride": 12,
			"target": 34962
		}
	],
	"images": [
		{
			"uri": "Assets/E168D926B640D775F707FDC46119D41F.png"
		},
		{
			"uri": "Assets/B8CC5A83E460BDC365F5B59226F6176A.png"
		},
		{
			"uri": "Assets/7DAD72C3E4420F9EEB61B5E56895E7CA.png"
		},
		{
			"uri": "Assets/B5308484F90C7F60B011B55A1FDBAAAC.png"
		},
		{
			"uri": "Assets/8330564D8CD3F104D8BB0069B7ECF963.png"
		},
		{
			"uri": "Assets/AA090147404FCB8CEF529E2827A3F659.png"
		},
		{
			"uri": "Assets/1A01884C568603ADF815F4F8AB671677.png"
		}
	],
	"materials": [
		{
			"pbrMetallicRoughness": {
				"baseColorFactor": [0.5882353, 0.5882353, 0.5882353, 0],
				"metallicFactor": 0,
				"roughnessFactor": 0.6
			},
			"alphaMode": "BLEND",
			"emissiveFactor": [0, 0, 0],
			"doubleSided": false,
			"name": "01 - Default (Instance)"
		},
		{
			"pbrMetallicRoughness": {
				"baseColorTexture" : {
					"index" : 0,
					"texCoord" : 0
				},
				"baseColorFactor": [1, 1, 1, 1],
				"metallicFactor": 0,
				"roughnessFactor": 0.6
			},
			"emissiveFactor": [0, 0, 0],
			"doubleSided": false,
			"name": "Standard"
		},
		{
			"pbrMetallicRoughness": {
				"baseColorTexture" : {
					"index" : 1,
					"texCoord" : 0
				},
				"baseColorFactor": [0.9, 0.9, 0.9, 1],
				"metallicFactor": 0,
				"roughnessFactor": 0.6
			},
			"alphaCutoff": 0.5,
			"alphaMode": "MASK",
			"emissiveFactor": [0, 0, 0],
			"doubleSided": false,
			"name": "Material #4 (Instance)"
		},
		{
			"pbrMetallicRoughness": {
				"baseColorTexture" : {
					"index" : 2,
					"texCoord" : 0
				},
				"baseColorFactor": [0.7757863, 0.7757863, 0.7757863, 1],
				"metallicFactor": 0,
				"roughnessFactor": 0.6
			},
			"emissiveFactor": [0, 0, 0],
			"occlusionTexture" : {
				"index" : 3,
				"texCoord" : 1
			},
			"doubleSided": false,
			"name": "AM_133_building_003_002_diffusedalou006.bmp.bmp_jg_md (Instance)"
		},
		{
			"pbrMetallicRoughness": {
				"baseColorTexture" : {
					"index" : 4,
					"texCoord" : 0
				},
				"baseColorFactor": [0.7757863, 0.7757863, 0.7757863, 1],
				"metallicFactor": 0,
				"roughnessFactor": 0.6
			},
			"emissiveFactor": [0, 0, 0],
			"occlusionTexture" : {
				"index" : 3,
				"texCoord" : 1
			},
			"doubleSided": false,
			"name": "qiangbi2dalou006.bmp.bmp_jg_md (Instance)"
		},
		{
			"pbrMetallicRoughness": {
				"baseColorTexture" : {
					"index" : 5,
					"texCoord" : 0
				},
				"baseColorFactor": [0.7757863, 0.7757863, 0.7757863, 1],
				"metallicFactor": 0,
				"roughnessFactor": 0.6
			},
			"emissiveFactor": [0, 0, 0],
			"occlusionTexture" : {
				"index" : 3,
				"texCoord" : 1
			},
			"doubleSided": false,
			"name": "AM_133_building_003_003_diffusedalou006.bmp.bmp_jg_md (Instance)"
		},
		{
			"pbrMetallicRoughness": {
				"baseColorTexture" : {
					"index" : 6,
					"texCoord" : 0
				},
				"baseColorFactor": [0.9389149, 0.9389149, 0.9389149, 1],
				"metallicFactor": 0,
				"roughnessFactor": 0.6
			},
			"emissiveFactor": [0, 0, 0],
			"occlusionTexture" : {
				"index" : 3,
				"texCoord" : 1
			},
			"doubleSided": false,
			"name": "AM_133_building_003_001_diffusedalou006.bmp.bmp_jg_md (Instance)"
		},
		{
			"pbrMetallicRoughness": {
				"baseColorTexture" : {
					"index" : 2,
					"texCoord" : 0
				},
				"baseColorFactor": [1, 1, 1, 1],
				"metallicFactor": 0,
				"roughnessFactor": 0.6
			},
			"emissiveFactor": [0, 0, 0],
			"doubleSided": false,
			"name": "Standard"
		}
	],
	"meshes": [
		{
			"name": "mesh__-50206CombinePrefabWall",
			"primitives": [
				{
					"attributes": {
						"POSITION": 0,
						"NORMAL": 1,
						"TEXCOORD_0": 2,
						"TEXCOORD_1": 3
					},
					"indices": 4,
					"material": 0,
					"mode": 4
				},
				{
					"attributes": {
						"POSITION": 0,
						"NORMAL": 1,
						"TEXCOORD_0": 2,
						"TEXCOORD_1": 3
					},
					"indices": 5,
					"material": 1,
					"mode": 4
				},
				{
					"attributes": {
						"POSITION": 0,
						"NORMAL": 1,
						"TEXCOORD_0": 2,
						"TEXCOORD_1": 3
					},
					"indices": 6,
					"material": 2,
					"mode": 4
				}
			]
		},
		{
			"name": "mesh__-50218CombinePlacement",
			"primitives": [
				{
					"attributes": {
						"POSITION": 7,
						"NORMAL": 8,
						"TEXCOORD_0": 9,
						"TEXCOORD_1": 10
					},
					"indices": 11,
					"material": 3,
					"mode": 4
				},
				{
					"attributes": {
						"POSITION": 7,
						"NORMAL": 8,
						"TEXCOORD_0": 9,
						"TEXCOORD_1": 10
					},
					"indices": 12,
					"material": 4,
					"mode": 4
				},
				{
					"attributes": {
						"POSITION": 7,
						"NORMAL": 8,
						"TEXCOORD_0": 9,
						"TEXCOORD_1": 10
					},
					"indices": 13,
					"material": 5,
					"mode": 4
				},
				{
					"attributes": {
						"POSITION": 7,
						"NORMAL": 8,
						"TEXCOORD_0": 9,
						"TEXCOORD_1": 10
					},
					"indices": 14,
					"material": 6,
					"mode": 4
				},
				{
					"attributes": {
						"POSITION": 7,
						"NORMAL": 8,
						"TEXCOORD_0": 9,
						"TEXCOORD_1": 10
					},
					"indices": 15,
					"material": 7,
					"mode": 4
				}
			]
		}
	],
	"nodes": [
		{
			"name": "UnityGlTF_correctionMatrix",
			"children": [
				1
			],
			"matrix": [-1, 0, -8.742278E-08, 0, 0, 1, 0, 0, 8.742278E-08, 0, -1, 0, 0, 0, 0, 1]
		},
		{
			"name": "node_World_-15932",
			"children": [
				2,
				3
			],
			"matrix": [1, 0, 0, 0, 0, 1, 0, 0, 0, 0, 1, 0, 0, 0, 0, 1]
		},
		{
			"name": "node_Buildings_-15938"
		},
		{
			"name": "node_FloorPlan_-15942",
			"children": [
				4,
				5,
				6,
				7,
				8,
				9,
				10,
				11,
				12,
				13,
				14,
				15,
				17,
				18,
				19,
				20,
				22,
				23,
				24,
				25,
				26
			]
		},
		{
			"name": "node_Placements_-15948"
		},
		{
			"name": "node_Routes_-15964"
		},
		{
			"name": "node_Text3Ds_-15968"
		},
		{
			"name": "node_WayPoints_-15972"
		},
		{
			"name": "node_HeatmapObjs_-15976"
		},
		{
			"name": "node_PosPoints_-15980"
		},
		{
			"name": "node_PipeLines_-15984"
		},
		{
			"name": "node_LeakWaterLines_-15988"
		},
		{
			"name": "node_lines_-15992"
		},
		{
			"name": "node_curveLines_-15996"
		},
		{
			"name": "node_arrowLines_-16000"
		},
		{
			"name": "node_CombineWall_-16004",
			"children": [
				16
			]
		},
		{
			"name": "node_CombinePrefabWall_-50200",
			"mesh": 0
		},
		{
			"name": "node_CombineFloor_-16008"
		},
		{
			"name": "node_CombineCeiling_-16012"
		},
		{
			"name": "node_CombineDoorOrWin_-16020"
		},
		{
			"name": "node_CombinePlacement_-16024",
			"children": [
				21
			]
		},
		{
			"name": "node_CombinePlacement_-50212",
			"mesh": 1
		},
		{
			"name": "node_DoorOrWins_-16028"
		},
		{
			"name": "node_ArrowDataLines_-16032"
		},
		{
			"name": "node_Polygon_-16036"
		},
		{
			"name": "node_CubePolygon_-16040"
		},
		{
			"name": "node_ColliderCube_-16044",
			"scale": [ 0, 0, 0]
		}
	],
	"samplers": [
		{
			"magFilter": 9729,
			"minFilter": 9985,
			"wrapS": 10497,
			"wrapT": 10497
		}
	],
	"scenes": [
		{
			"name":"defaultScene",
			"nodes": [
				0
			]
		}
	],
	"scene": 0,
	"textures": [
		{
			"sampler": 0,
			"source": 0
		},
		{
			"sampler": 0,
			"source": 1
		},
		{
			"sampler": 0,
			"source": 2
		},
		{
			"sampler": 0,
			"source": 3
		},
		{
			"sampler": 0,
			"source": 4
		},
		{
			"sampler": 0,
			"source": 5
		},
		{
			"sampler": 0,
			"source": 6
		}
	]
}